PathFileType  4	(X/Y/Z) C:\Users\antoi\Documents\MyRepositories\mobilecap\ResultsAnalysis
DataRate	CameraRate	NumFrames	NumMarkers	Units	OrigDataRate	OrigDataStartFrame	OrigNumFrames
100.0	100.0	4	51	mm	100.0	89	141
Frame#	Time	r_knee			r_shank_antsup			r_ankle			r_calc			r_5meta			r_toe			L_knee			L_shank_antsup			L_ankle			L_calc			L_5meta			L_toe			r_sh2			r_sh3			r_sh4			L_sh2			L_sh3			r_thigh1			r_thigh2			r_thigh3			r_thigh4			r_thigh5			L_thigh1			L_thigh2			L_thigh3			L_thigh4			r.ASIS			r.PSIS			L.ASIS			L.PSIS			C7			R_Shoulder			L_Shoulder			R_Sternum			L_Sternum			R_humerus			R_elbow_med			R_elbow_lat			R_forearm			R_wrist_radius			R_wrist_ulna			L_humerus			L_elbow_med			L_elbow_lat			L_forearm			L_wrist_radius			L_wrist_ulna			R_HJC			L_HJC			R_HJC_reg			L_HJC_reg			
		X1	Y1	Z1	X2	Y2	Z2	X3	Y3	Z3	X4	Y4	Z4	X5	Y5	Z5	X6	Y6	Z6	X7	Y7	Z7	X8	Y8	Z8	X9	Y9	Z9	X10	Y10	Z10	X11	Y11	Z11	X12	Y12	Z12	X13	Y13	Z13	X14	Y14	Z14	X15	Y15	Z15	X16	Y16	Z16	X17	Y17	Z17	X18	Y18	Z18	X19	Y19	Z19	X20	Y20	Z20	X21	Y21	Z21	X22	Y22	Z22	X23	Y23	Z23	X24	Y24	Z24	X25	Y25	Z25	X26	Y26	Z26	X27	Y27	Z27	X28	Y28	Z28	X29	Y29	Z29	X30	Y30	Z30	X31	Y31	Z31	X32	Y32	Z32	X33	Y33	Z33	X34	Y34	Z34	X35	Y35	Z35	X36	Y36	Z36	X37	Y37	Z37	X38	Y38	Z38	X39	Y39	Z39	X40	Y40	Z40	X41	Y41	Z41	X42	Y42	Z42	X43	Y43	Z43	X44	Y44	Z44	X45	Y45	Z45	X46	Y46	Z46	X47	Y47	Z47	X48	Y48	Z48	X49	Y49	Z49	X50	Y50	Z50	X51	Y51	Z51	

89	0.88000000	918.73845	491.47338	-72.95548	898.37911	393.55974	-84.88378	631.78542	214.66586	-134.87236	576.11848	230.40030	-198.64589	667.37122	96.50190	-81.26723	723.88354	94.49302	-123.85628	899.94683	499.21494	-349.69192	933.38191	410.55491	-334.10427	824.41027	95.75040	-319.17928	749.12047	52.86030	-270.04476	926.94701	39.29716	-356.08615	974.99915	63.37748	-298.29273	817.07446	315.65253	-99.04279	847.95604	439.58079	-53.91457	760.04869	366.86357	-64.95463	854.89729	432.80097	-375.14484	833.24081	314.32879	-377.47904	904.95516	772.93072	-40.75571	941.96875	668.59441	-48.77392	892.64913	624.31309	-29.43526	798.68103	733.21904	-38.71547	841.90513	626.36995	-56.31871	943.99711	751.68378	-367.91751	968.32361	615.83931	-341.31159	845.41714	726.17011	-408.39858	867.50127	597.91071	-375.86573	910.98422	959.15692	-82.67782	715.42130	998.96334	-177.38444	935.07463	957.25675	-337.00982	723.62135	1000.57298	-272.15046	812.81489	1432.30573	-344.05351	894.68474	1447.87997	-174.86095	891.55593	1329.93118	-471.70337	928.20209	1356.37499	-292.34553	924.69827	1341.17977	-335.27774	924.85080	1330.94480	-89.75750	803.12537	1149.93705	-53.56014	835.20126	1171.46042	2.27160	887.61704	1100.98558	20.32483	911.10934	929.97877	16.72895	890.03813	941.71168	60.77133	909.73729	1179.01749	-488.41972	831.80479	997.96758	-405.52012	841.82267	994.60016	-483.72049	887.12174	935.57079	-493.73981	929.78219	765.85108	-457.62881	888.12889	766.42612	-486.07998	828.08409	874.90304	-114.38474	844.51549	875.42485	-303.23157	840.38578	881.80830	-126.33076	854.92034	884.66357	-294.29405	
90	0.89000000	939.34081	495.74705	-73.98149	922.40902	397.22574	-84.75587	663.60514	206.15914	-133.39204	606.90384	218.29936	-196.94840	705.97202	90.75557	-78.62982	762.69788	91.87147	-121.30110	903.11484	499.34843	-350.28818	935.66988	410.46381	-334.89825	824.89293	96.11893	-319.19560	749.48309	53.32559	-269.77097	927.02539	39.39091	-356.26565	975.14855	63.15529	-298.44015	844.41689	316.01695	-98.16588	870.01356	441.54245	-54.32563	785.16952	365.24962	-64.79111	857.08957	433.20815	-375.42390	834.61923	314.88826	-377.62431	919.24465	776.53120	-41.47571	958.51327	673.14332	-49.65542	910.32615	627.80501	-29.97552	813.89330	734.51014	-39.04865	859.45817	628.94158	-56.59743	951.96763	751.18968	-368.57799	974.06893	614.96059	-341.89973	853.19104	727.24303	-409.30968	873.01349	598.65115	-376.58754	922.20066	961.22847	-84.79815	726.57829	1000.84354	-178.50585	945.65651	958.15193	-338.74892	734.62709	1002.30608	-273.41609	824.32041	1434.54535	-343.85808	905.49490	1449.21711	-174.25023	903.54780	1333.25444	-471.92540	939.63520	1358.45845	-292.22640	936.29960	1343.56636	-335.24954	935.13203	1332.16773	-89.19151	813.70420	1150.60352	-55.24073	844.69075	1172.15541	1.24567	897.02766	1101.95158	20.30586	921.62923	931.09199	17.05100	899.38052	942.68220	60.48867	922.33119	1182.44761	-488.83402	844.07080	1001.16540	-406.59099	855.36535	997.71211	-484.62927	901.01909	938.87080	-493.88443	943.70980	769.34483	-456.91709	902.51670	769.74871	-486.04175	839.21306	876.93242	-115.56844	855.00694	876.69163	-304.46993	851.50261	883.54268	-128.13204	865.72600	886.13030	-295.84411	
91	0.90000000	959.32324	500.02317	-75.31646	946.12891	400.95015	-84.92904	696.30931	197.08284	-131.83641	638.80228	205.47585	-195.25039	745.39088	84.95023	-75.87282	802.20716	89.23626	-118.61452	906.43198	499.54954	-350.87739	938.04058	410.43946	-335.63547	825.42852	96.56089	-319.25408	749.91308	53.99470	-269.58588	927.15079	39.49087	-356.44853	975.30383	62.89303	-298.60132	871.89987	316.27636	-97.53488	891.53573	443.27230	-54.92225	810.34145	363.11073	-64.71106	859.43236	433.67525	-375.78048	836.16486	315.50954	-377.85571	933.47241	780.06675	-42.41712	974.87615	677.61748	-50.87801	927.78708	631.35355	-30.77402	829.05394	735.92533	-39.35774	876.76177	631.56995	-57.02514	959.92098	750.73427	-369.17286	979.92367	614.21321	-342.42308	861.06378	728.28087	-410.21984	878.61658	599.42428	-377.35115	933.46097	963.18400	-86.99475	737.69951	1002.59623	-179.56387	956.16401	958.98252	-340.47483	745.60822	1003.92038	-274.61609	835.75200	1436.76826	-343.47675	916.24804	1450.41278	-173.46885	915.44523	1336.72323	-472.08160	950.98706	1360.51283	-292.01402	947.85532	1345.97366	-335.14772	945.37748	1333.19938	-88.55115	824.28469	1151.08889	-56.85690	854.21835	1172.62807	0.23418	906.40376	1102.69094	20.22535	932.10924	931.98233	17.31029	908.75041	943.41824	60.16032	934.89056	1186.04491	-489.27892	856.34043	1004.49373	-407.69698	868.86776	1000.97496	-485.56047	914.93146	942.33921	-494.03450	957.72982	773.02103	-456.20082	916.98961	773.21985	-486.01640	850.38397	878.84046	-116.75774	865.46021	877.87276	-305.71552	862.61234	885.19524	-130.01207	876.54101	887.53027	-297.40880	
92	0.91000000	978.60317	504.23053	-76.93406	969.48130	404.69743	-85.42418	729.89617	187.67558	-130.25586	671.82105	192.19093	-193.60044	785.53519	79.34103	-73.05200	842.24478	86.74187	-115.88383	909.89504	499.80954	-351.49051	940.48962	410.47593	-336.35663	825.98595	97.05386	-319.35849	750.35461	54.88099	-269.54049	927.32675	39.58093	-356.62258	975.46912	62.60446	-298.78122	899.48559	316.44261	-97.18393	912.58088	444.65302	-55.70583	835.59131	360.43848	-64.69898	861.91413	434.20438	-376.23170	837.85638	316.19099	-378.19795	947.61402	783.50764	-43.56400	990.95678	681.97073	-52.44652	944.94152	634.90398	-31.84166	844.11208	737.46873	-39.64396	893.73446	634.21736	-57.62781	967.85597	750.31333	-369.73864	985.87222	613.58108	-342.93887	869.01115	729.28178	-411.14233	884.29558	600.22633	-378.18601	944.77989	965.00264	-89.19495	748.81005	1004.20652	-180.55680	966.64927	959.72067	-342.15934	756.57551	1005.42963	-275.74582	847.12627	1438.95148	-342.90743	926.96460	1451.44365	-172.51843	927.27433	1340.30216	-472.15881	962.27362	1362.51964	-291.70517	959.38006	1348.38335	-334.96673	955.58025	1334.01374	-87.82234	834.90154	1151.35895	-58.39750	863.80335	1172.86189	-0.74938	915.80829	1103.17868	20.10417	942.57717	932.62415	17.50419	918.19731	943.89510	59.80281	947.40535	1189.77323	-489.75375	868.61725	1007.91028	-408.83699	882.34312	1004.34625	-486.51006	928.82966	945.94102	-494.19940	971.82638	776.83714	-455.49993	931.53700	776.80449	-486.01964	861.59598	880.61297	-117.92546	875.90601	878.95397	-306.93835	873.75838	886.69578	-131.91627	887.38700	888.84408	-298.96591	
